<svg xmlns="http://www.w3.org/2000/svg" width="150" height="150" viewBox="0 0 150 150"><rect width="100%" height="100%" fill="#f88353"/><path fill="#ffffff" d="m38.845 69.25-.66 1.27q-.13.21-.26.3-.13.1-.34.1t-.45-.16q-.24-.15-.59-.34-.34-.19-.79-.35-.46-.15-1.07-.15-.57 0-.99.14-.41.13-.7.37t-.42.57q-.14.34-.14.74 0 .51.28.85.29.34.75.58.47.24 1.08.43.6.19 1.22.4.63.22 1.24.51.59.28 1.07.71.47.44.75 1.07.29.63.29 1.53 0 .98-.34 1.84-.34.85-.98 1.48-.65.64-1.58 1-.92.37-2.13.37-.69 0-1.36-.13-.67-.14-1.28-.39-.62-.25-1.15-.6-.54-.35-.97-.78l.79-1.29q.1-.14.26-.24.17-.09.34-.09.25 0 .54.2.29.21.69.46t.94.45q.53.21 1.28.21 1.16 0 1.78-.54.63-.55.63-1.57 0-.57-.28-.93-.29-.36-.75-.61-.47-.24-1.08-.41-.6-.17-1.21-.37-.63-.2-1.22-.48-.6-.28-1.08-.73-.47-.45-.75-1.12-.29-.68-.29-1.67 0-.79.32-1.54.31-.75.91-1.33.61-.58 1.48-.93.88-.35 2.02-.35 1.29 0 2.36.4 1.08.4 1.84 1.12m8.58 2.84h2.47v10.26h-1.51q-.49 0-.62-.45l-.17-.82q-.63.64-1.39 1.03-.76.4-1.79.4-.84 0-1.48-.29-.64-.28-1.09-.8-.44-.52-.66-1.24-.23-.71-.23-1.57v-6.52h2.47v6.52q0 .94.44 1.45.43.52 1.3.52.64 0 1.2-.29.56-.28 1.06-.78zm11.35 7.22v-4.6q-.41-.51-.91-.72t-1.07-.21q-.56 0-1 .21-.46.21-.78.63-.32.43-.49 1.08-.16.66-.16 1.55 0 .9.14 1.52.14.63.41 1.02.27.4.66.57.39.18.87.18.77 0 1.31-.32t1.02-.91m0-11.82h2.47v14.86h-1.51q-.49 0-.62-.45l-.21-.99q-.61.71-1.42 1.15-.8.44-1.87.44-.85 0-1.55-.35t-1.2-1.02q-.51-.66-.78-1.64-.28-.98-.28-2.24 0-1.14.31-2.12t.89-1.7 1.39-1.12q.81-.41 1.82-.41.86 0 1.47.27t1.09.73zm10.33 12.21v-1.73q-1.07.05-1.8.18-.73.14-1.17.35t-.63.49-.19.61q0 .65.39.93.38.28 1 .28.76 0 1.32-.27.55-.28 1.08-.84m-5.22-5.39-.44-.79q1.77-1.62 4.26-1.62.9 0 1.61.3.71.29 1.2.81.49.53.75 1.26.25.73.25 1.6v6.48h-1.12q-.35 0-.54-.1-.19-.11-.3-.43l-.22-.74q-.39.35-.76.61-.37.27-.77.45t-.85.28q-.46.09-1.01.09-.65 0-1.2-.17-.55-.18-.95-.53t-.62-.87-.22-1.21q0-.39.13-.78.13-.38.43-.73.29-.35.76-.66t1.16-.54q.68-.23 1.59-.38.91-.14 2.08-.17v-.6q0-1.03-.44-1.53-.44-.49-1.27-.49-.6 0-.99.14-.4.14-.7.32-.3.17-.54.31-.25.14-.55.14-.26 0-.44-.14-.18-.13-.29-.31m12.09-1.77.17.81q.31-.31.66-.58.34-.26.73-.45.38-.18.82-.28.44-.11.96-.11.84 0 1.49.29.65.28 1.09.79.43.52.66 1.23.22.72.22 1.58v6.53h-2.47v-6.53q0-.94-.43-1.46-.43-.51-1.31-.51-.64 0-1.2.29t-1.06.79v7.42h-2.47V72.09h1.51q.48 0 .63.45m12.22 2.62h2.01q.74 0 1.29-.19.55-.18.92-.53.36-.34.54-.84.18-.49.18-1.1 0-.58-.18-1.05t-.54-.8-.91-.51q-.55-.17-1.3-.17h-2.01zm-2.69-7.27h4.7q1.45 0 2.52.34 1.05.34 1.75.95.68.61 1.02 1.46.33.85.33 1.86 0 1.05-.35 1.93-.35.87-1.05 1.5t-1.75.98q-1.06.35-2.47.35h-2.01v5.09h-2.69zm12.02-.4h2.47v14.86h-2.47zm11.31 4.6h2.47v10.26h-1.51q-.49 0-.61-.45l-.18-.82q-.63.64-1.39 1.03-.76.4-1.79.4-.84 0-1.48-.29-.65-.28-1.09-.8t-.66-1.24q-.23-.71-.23-1.57v-6.52h2.47v6.52q0 .94.44 1.45.43.52 1.3.52.65 0 1.2-.29.56-.28 1.06-.78zm11.73 1.11-.56.89q-.1.16-.21.22-.11.07-.28.07-.18 0-.38-.1-.21-.1-.48-.22-.27-.13-.61-.23-.35-.1-.82-.1-.73 0-1.14.31-.42.31-.42.81 0 .33.22.55.21.23.57.4.35.17.8.3.45.14.92.3.46.16.91.37.45.2.81.51.35.32.57.76.21.44.21 1.06 0 .74-.26 1.36-.27.63-.79 1.08-.52.46-1.28.71-.77.26-1.77.26-.53 0-1.03-.09-.51-.1-.97-.27-.47-.17-.86-.4-.4-.23-.7-.5l.57-.94q.11-.17.26-.26t.38-.09.44.13q.2.13.47.28t.64.28q.36.13.92.13.44 0 .76-.11.31-.1.52-.27.2-.17.3-.4.09-.22.09-.46 0-.36-.21-.59-.22-.23-.57-.4-.36-.17-.81-.31-.46-.13-.93-.29-.48-.16-.93-.38-.46-.21-.81-.54-.36-.33-.57-.81-.22-.48-.22-1.16 0-.63.25-1.2t.74-.99q.48-.43 1.21-.69.72-.25 1.67-.25 1.06 0 1.93.35t1.45.92"/></svg>