<svg xmlns="http://www.w3.org/2000/svg" width="1080" height="1080" viewBox="0 0 1080 1080"><rect width="100%" height="100%" fill="#136b60"/><path fill="#f88353" d="m285.105 499.455-4.72 8.96q-.85 1.48-1.8 2.15t-2.36.67q-1.48 0-3.21-1.09-1.73-1.1-4.12-2.44-2.4-1.34-5.61-2.43-3.2-1.09-7.58-1.09-3.94 0-6.9.95-2.97.95-4.98 2.64-2 1.7-2.99 4.06t-.99 5.18q0 3.59 2.01 5.99t5.32 4.09q3.32 1.69 7.55 3.03t8.67 2.86q4.44 1.51 8.67 3.52t7.54 5.08q3.32 3.07 5.33 7.51t2.01 10.78q0 6.91-2.37 12.94-2.36 6.03-6.91 10.5-4.54 4.48-11.1 7.05-6.56 2.58-15.02 2.58-4.86 0-9.58-.95-4.73-.96-9.06-2.72-4.34-1.76-8.15-4.23-3.8-2.47-6.76-5.5l5.57-9.09q.7-.99 1.83-1.66t2.4-.67q1.76 0 3.8 1.45 2.05 1.44 4.87 3.2 2.82 1.77 6.59 3.21 3.77 1.45 9.06 1.45 8.11 0 12.55-3.84 4.44-3.85 4.44-11.04 0-4.02-2.01-6.55-2.01-2.54-5.32-4.27-3.32-1.73-7.55-2.93-4.23-1.19-8.6-2.6t-8.6-3.39q-4.23-1.97-7.54-5.14-3.32-3.18-5.32-7.94-2.01-4.75-2.01-11.73 0-5.57 2.22-10.86t6.45-9.38 10.43-6.55q6.21-2.47 14.24-2.47 9.03 0 16.64 2.82t12.97 7.89m60.49 20.03h17.42v72.33h-10.65q-3.45 0-4.37-3.17l-1.2-5.78q-4.44 4.51-9.8 7.29-5.36 2.79-12.62 2.79-5.92 0-10.47-2.01t-7.65-5.68q-3.1-3.66-4.69-8.7-1.58-5.04-1.58-11.11v-45.96h17.41v45.96q0 6.63 3.07 10.26t9.2 3.63q4.51 0 8.46-2.01t7.47-5.53zm80.02 50.9v-32.43q-2.96-3.6-6.45-5.08t-7.51-1.48q-3.95 0-7.12 1.48t-5.43 4.48q-2.25 2.99-3.45 7.61t-1.2 10.89q0 6.35 1.02 10.76 1.02 4.4 2.93 7.19 1.9 2.78 4.65 4.02 2.75 1.23 6.13 1.23 5.43 0 9.24-2.26 3.81-2.25 7.19-6.41m0-83.33h17.41v104.76h-10.64q-3.46 0-4.37-3.17l-1.48-6.98q-4.38 5-10.05 8.11-5.68 3.1-13.22 3.1-5.92 0-10.86-2.47-4.93-2.47-8.49-7.16-3.56-4.68-5.5-11.59t-1.94-15.8q0-8.03 2.19-14.94 2.18-6.91 6.27-11.99 4.09-5.07 9.8-7.93 5.71-2.85 12.83-2.85 6.06 0 10.36 1.9 4.31 1.9 7.69 5.15zm72.83 86.08v-12.2q-7.55.35-12.69 1.31-5.15.95-8.25 2.43t-4.44 3.45q-1.34 1.98-1.34 4.3 0 4.58 2.71 6.56 2.71 1.97 7.09 1.97 5.35 0 9.27-1.94 3.91-1.93 7.65-5.88m-36.81-38-3.1-5.57q12.48-11.42 30.04-11.42 6.34 0 11.35 2.08 5 2.08 8.46 5.78 3.45 3.7 5.25 8.85 1.8 5.14 1.8 11.28v45.68h-7.9q-2.47 0-3.81-.74t-2.11-3l-1.55-5.21q-2.75 2.46-5.36 4.33t-5.43 3.14-6.03 1.94q-3.2.67-7.08.67-4.58 0-8.46-1.24-3.88-1.23-6.7-3.7-2.82-2.46-4.37-6.13t-1.55-8.53q0-2.75.91-5.46.92-2.72 3-5.19 2.08-2.46 5.39-4.65 3.32-2.19 8.15-3.81t11.24-2.64q6.42-1.02 14.67-1.23v-4.23q0-7.27-3.11-10.76-3.1-3.49-8.95-3.49-4.23 0-7.01.99-2.79.99-4.9 2.22-2.12 1.24-3.85 2.22-1.72.99-3.84.99-1.83 0-3.1-.95t-2.05-2.22m85.24-12.48 1.2 5.71q2.18-2.19 4.62-4.05 2.43-1.87 5.14-3.18 2.72-1.3 5.82-2.04t6.77-.74q5.92 0 10.5 2.01t7.65 5.64 4.65 8.67q1.59 5.04 1.59 11.1v46.04h-17.41v-46.04q0-6.62-3.04-10.25-3.03-3.64-9.23-3.64-4.51 0-8.46 2.05-3.95 2.04-7.47 5.57v52.31h-17.42v-72.33h10.65q3.38 0 4.44 3.17m86.15 18.47h14.17q5.22 0 9.1-1.3 3.87-1.31 6.45-3.74 2.57-2.43 3.84-5.92t1.27-7.79q0-4.09-1.27-7.41-1.27-3.31-3.81-5.64-2.54-2.32-6.41-3.56-3.88-1.23-9.17-1.23h-14.17zm-18.96-51.25h33.13q10.22 0 17.7 2.39 7.47 2.4 12.33 6.7 4.87 4.3 7.23 10.29 2.36 6 2.36 13.12 0 7.4-2.47 13.57-2.46 6.17-7.4 10.61-4.93 4.44-12.37 6.91t-17.38 2.47h-14.17v35.88h-18.96zm84.74-2.82h17.41v104.76h-17.41zm79.73 32.43h17.42v72.33h-10.65q-3.45 0-4.37-3.17l-1.2-5.78q-4.44 4.51-9.8 7.29-5.36 2.79-12.62 2.79-5.92 0-10.47-2.01-4.54-2.01-7.65-5.68-3.1-3.66-4.68-8.7-1.59-5.04-1.59-11.11v-45.96h17.41v45.96q0 6.63 3.07 10.26t9.2 3.63q4.51 0 8.46-2.01t7.47-5.53zm82.7 7.82-3.95 6.28q-.7 1.12-1.48 1.58t-1.97.46q-1.27 0-2.72-.7-1.44-.71-3.35-1.59-1.9-.88-4.33-1.59-2.43-.7-5.75-.7-5.14 0-8.07 2.18-2.93 2.19-2.93 5.71 0 2.33 1.52 3.92 1.52 1.58 4.02 2.78t5.67 2.15q3.18.95 6.45 2.08 3.28 1.13 6.45 2.58 3.18 1.44 5.68 3.66t4.02 5.32q1.51 3.11 1.51 7.48 0 5.21-1.86 9.62-1.87 4.41-5.54 7.61-3.66 3.21-9.06 5.01-5.39 1.8-12.44 1.8-3.74 0-7.3-.67t-6.84-1.87q-3.27-1.2-6.06-2.82-2.78-1.62-4.9-3.53l4.02-6.62q.78-1.2 1.83-1.84 1.06-.63 2.68-.63t3.07.92q1.44.91 3.35 1.97 1.9 1.06 4.47 1.97 2.58.92 6.53.92 3.1 0 5.32-.74t3.66-1.94q1.45-1.2 2.12-2.78.67-1.59.67-3.28 0-2.54-1.52-4.16-1.51-1.62-4.02-2.82-2.5-1.2-5.71-2.15-3.2-.95-6.55-2.08t-6.56-2.64q-3.21-1.52-5.71-3.85-2.5-2.32-4.02-5.71-1.51-3.38-1.51-8.17 0-4.45 1.76-8.46 1.76-4.02 5.18-7.02t8.53-4.79q5.11-1.8 11.81-1.8 7.47 0 13.61 2.47 6.13 2.46 10.22 6.48"/></svg>