<svg xmlns="http://www.w3.org/2000/svg" width="300" height="300" viewBox="0 0 300 300"><rect width="100%" height="100%" fill="#136b60"/><path fill="#f88353" d="m79.495 138.785-1.3 2.48q-.24.41-.5.6-.26.18-.65.18-.41 0-.89-.3t-1.14-.67q-.67-.37-1.55-.68-.89-.3-2.1-.3-1.09 0-1.91.26-.82.27-1.37.74-.56.46-.83 1.12-.28.65-.28 1.43 0 .99.56 1.66.55.66 1.47 1.13t2.09.84 2.4.79q1.22.42 2.39.97 1.17.56 2.09 1.41.92.84 1.47 2.07.56 1.23.56 2.99 0 1.91-.65 3.57-.66 1.67-1.91 2.91-1.26 1.24-3.08 1.95-1.81.71-4.15.71-1.35 0-2.65-.26-1.31-.26-2.51-.75t-2.25-1.17-1.87-1.52l1.54-2.52q.19-.27.51-.46.31-.18.66-.18.49 0 1.05.4.57.4 1.35.89.78.48 1.82.88t2.51.4q2.24 0 3.47-1.06t1.23-3.05q0-1.11-.56-1.82-.56-.7-1.47-1.18-.92-.47-2.09-.8-1.17-.34-2.38-.73t-2.38-.93q-1.17-.55-2.08-1.43-.92-.87-1.48-2.19-.55-1.32-.55-3.25 0-1.54.61-3 .62-1.46 1.79-2.59t2.88-1.82q1.72-.68 3.94-.68 2.5 0 4.6.78 2.11.78 3.59 2.18m16.73 5.54h4.82v20.01h-2.94q-.96 0-1.21-.88l-.34-1.6q-1.22 1.25-2.71 2.02-1.48.77-3.49.77-1.63 0-2.89-.55-1.26-.56-2.12-1.57-.86-1.02-1.29-2.41-.44-1.4-.44-3.07v-12.72h4.81v12.72q0 1.83.85 2.83.85 1.01 2.55 1.01 1.24 0 2.34-.56 1.09-.55 2.06-1.53zm22.14 14.08v-8.97q-.82-.99-1.79-1.4-.96-.41-2.08-.41-1.09 0-1.96.41-.88.41-1.51 1.24-.62.83-.95 2.1-.33 1.28-.33 3.01 0 1.76.28 2.98t.81 1.99 1.29 1.11 1.69.34q1.5 0 2.56-.62 1.05-.63 1.99-1.78m0-23.05h4.81v28.98h-2.94q-.96 0-1.21-.88l-.41-1.93q-1.21 1.39-2.78 2.24-1.57.86-3.66.86-1.63 0-3-.68-1.36-.68-2.35-1.98-.98-1.3-1.52-3.21t-.54-4.37q0-2.22.61-4.13.6-1.91 1.73-3.31 1.14-1.41 2.71-2.2 1.58-.79 3.55-.79 1.68 0 2.87.53t2.13 1.42zm20.14 23.81v-3.37q-2.09.1-3.51.36t-2.28.67-1.23.96q-.37.54-.37 1.19 0 1.27.75 1.81.75.55 1.96.55 1.48 0 2.56-.54 1.09-.54 2.12-1.63m-10.18-10.51-.86-1.54q3.45-3.16 8.31-3.16 1.75 0 3.14.58 1.38.57 2.34 1.6.95 1.02 1.45 2.44.5 1.43.5 3.12v12.64h-2.19q-.68 0-1.05-.2-.37-.21-.58-.83l-.43-1.45q-.76.69-1.48 1.2-.73.52-1.51.87t-1.66.54q-.89.18-1.96.18-1.27 0-2.34-.34-1.08-.34-1.86-1.02-.78-.69-1.2-1.7-.43-1.01-.43-2.36 0-.76.25-1.51t.83-1.43q.57-.69 1.49-1.29.92-.61 2.25-1.05 1.34-.45 3.11-.73 1.78-.29 4.06-.35v-1.17q0-2-.86-2.97-.86-.96-2.48-.96-1.17 0-1.94.27t-1.35.61q-.59.34-1.06.62-.48.27-1.07.27-.5 0-.85-.26-.36-.27-.57-.62m23.58-3.45.33 1.58q.6-.6 1.27-1.12.68-.52 1.43-.88t1.61-.56q.85-.21 1.87-.21 1.64 0 2.9.56 1.27.55 2.12 1.56.85 1 1.29 2.4.44 1.39.44 3.07v12.73h-4.82v-12.73q0-1.84-.84-2.84t-2.55-1q-1.25 0-2.34.56-1.1.57-2.07 1.54v14.47h-4.82v-20.01h2.95q.93 0 1.23.88m23.82 5.11h3.92q1.45 0 2.52-.36t1.78-1.03q.72-.68 1.07-1.64.35-.97.35-2.16 0-1.13-.35-2.04-.35-.92-1.06-1.57-.7-.64-1.77-.98t-2.54-.34h-3.92zm-5.24-14.18h9.16q2.83 0 4.9.67 2.07.66 3.41 1.85 1.35 1.19 2 2.85.65 1.65.65 3.62 0 2.05-.68 3.76-.68 1.7-2.05 2.93-1.36 1.23-3.42 1.91t-4.81.68h-3.92v9.93h-5.24zm23.44-.78h4.81v28.98h-4.81zm22.05 8.97h4.82v20.01h-2.95q-.95 0-1.2-.88l-.34-1.6q-1.22 1.25-2.71 2.02-1.48.77-3.49.77-1.63 0-2.89-.55-1.26-.56-2.12-1.57-.86-1.02-1.3-2.41-.43-1.4-.43-3.07v-12.72h4.81v12.72q0 1.83.85 2.83.85 1.01 2.55 1.01 1.24 0 2.34-.56 1.09-.55 2.06-1.53zm22.88 2.17-1.1 1.73q-.19.32-.41.44-.21.13-.54.13-.35 0-.75-.2l-.93-.44q-.52-.24-1.2-.43-.67-.2-1.59-.2-1.42 0-2.23.61-.81.6-.81 1.57 0 .65.42 1.09t1.11.77 1.57.59q.88.27 1.79.58.9.31 1.78.71t1.57 1.01q.69.62 1.11 1.48.42.85.42 2.06 0 1.45-.52 2.66-.51 1.22-1.53 2.11-1.01.89-2.5 1.38-1.49.5-3.44.5-1.04 0-2.02-.18-.99-.19-1.89-.52-.91-.33-1.68-.78t-1.36-.98l1.12-1.83q.21-.33.5-.51.29-.17.74-.17t.85.25q.4.26.93.55.52.29 1.24.55.71.25 1.8.25.86 0 1.47-.21.62-.2 1.02-.53t.58-.77q.19-.44.19-.91 0-.7-.42-1.15t-1.11-.78q-.7-.33-1.58-.59-.89-.27-1.82-.58-.92-.31-1.81-.73t-1.58-1.06q-.69-.65-1.11-1.58-.42-.94-.42-2.27 0-1.22.49-2.34.48-1.11 1.43-1.94.95-.82 2.36-1.32t3.27-.5q2.06 0 3.76.68 1.7.69 2.83 1.8"/></svg>